<?xml version="1.0" encoding="utf-8"?>
<!-- Generator: Adobe Illustrator 27.5.0, SVG Export Plug-In . SVG Version: 6.00 Build 0)  -->
<svg version="1.1" xmlns="http://www.w3.org/2000/svg" xmlns:xlink="http://www.w3.org/1999/xlink" x="0px" y="0px"
	 viewBox="0 0 3710 3710" style="enable-background:new 0 0 3710 3710;" xml:space="preserve">
<g id="Background">
	<g>
		<g>
			<rect style="fill:#FFFFFF00;" width="3710" height="3710"/>
		</g>
	</g>
</g>
<g id="Illustration">
	<g>
		<linearGradient id="SVGID_1_" gradientUnits="userSpaceOnUse" x1="3469.6958" y1="3666.4109" x2="1521.939" y2="1592.9927">
			<stop  offset="0" style="stop-color:#B37CFF"/>
			<stop  offset="1" style="stop-color:#F895E7"/>
		</linearGradient>
		<path style="opacity:0.3;fill:url(#SVGID_1_);" d="M2884.884,2834.564c-71.903,74.115-136.24,117.683-185.498,150.573
			c-480.406,320.771-1029.563,228.318-1199.348,196.717c-273.928-50.984-505.162-86.951-703.832-266.441
			c-451.44-407.858-429.483-1258.68-84.528-1785.728c40.901-62.493,385.334-573.049,935.68-644.991
			c13.461-1.759,23.504-2.762,32.301-3.693c85.137-9.014,612.715-56.589,1042.902,303.822
			c61.58,51.591,160.678,144.648,252.575,286.575C3311.151,1590.348,3312.216,2394.087,2884.884,2834.564z"/>
		<g>
			<g>
				<g>
					
						<linearGradient id="SVGID_00000079456474541764037280000013697584717915210400_" gradientUnits="userSpaceOnUse" x1="1485.5691" y1="1779.8264" x2="3176.2024" y2="1779.8264" gradientTransform="matrix(0.9998 -0.0219 0.0219 0.9998 28.2232 -27.654)">
						<stop  offset="0" style="stop-color:#2B3582"/>
						<stop  offset="1" style="stop-color:#150E42"/>
					</linearGradient>
					<path style="fill:url(#SVGID_00000079456474541764037280000013697584717915210400_);" d="M1674.525,458.849
						c-65.55,5.701-115.807,60.598-115.993,126.395c-1.141,402.377-3.024,1790.282,23.203,2281.522
						c2.778,52.043,45.445,92.926,97.558,93.487c257.756,2.775,999.182,7.873,1420.093-19.05
						c87.669-5.608,155.89-78.218,155.784-166.066c-0.511-422.309-7.259-1609.986-65.108-2152.86
						c-6.931-65.045-59.218-115.815-124.433-120.897C2784.506,479.478,2037.982,427.24,1674.525,458.849z"/>
					
						<linearGradient id="SVGID_00000025424227850096668250000018375505988177208998_" gradientUnits="userSpaceOnUse" x1="2906.6982" y1="315.0886" x2="1929.8086" y2="2807.8425">
						<stop  offset="0" style="stop-color:#FDF53F"/>
						<stop  offset="1" style="stop-color:#D93C65"/>
					</linearGradient>
					<path style="fill:url(#SVGID_00000025424227850096668250000018375505988177208998_);" d="M1661.998,690.695
						c-5.062,344.198-19.474,1489.201,5.685,1911.801c3.677,61.769,51.658,110.535,110.903,112.599
						c243.929,8.501,869.446,24.951,1225.876-14.268c64.181-7.062,113.234-62.693,114.944-130.055
						c8.916-351.253,32.999-1417.691,8.547-1835.565c-3.901-66.663-54.831-119.855-118.673-124.156
						c-264.118-17.797-942.34-58.839-1245.436-33.598C1706.946,582.19,1662.874,631.106,1661.998,690.695z"/>
					<path style="fill:#1F5AA9;" d="M2251.36,518.695c0.209,9.509,7.792,17.189,17.299,17.478
						c46.936,1.426,179.157,5.474,238.255,7.603c11.652,0.42,20.556-10.242,18.098-21.639c-0.202-0.359-1.716-14.973-16.641-16.01
						c-39.977-2.78-160.585-10.274-240.286-5.676C2251.719,501.395,2250.829,520.007,2251.36,518.695z"/>
				</g>
			</g>
			<path style="opacity:0.24;fill:#FFFFFF;" d="M2901.894,2608.083H1820.727c-54.021,0-97.813-72.657-97.813-162.284V814.592
				c0-79.058,38.628-143.147,86.279-143.147h1141.839c54.885,0,99.378,73.82,99.378,164.881v1525.351
				C3050.41,2497.764,2983.917,2608.083,2901.894,2608.083z"/>
			<g style="opacity:0.67;">
				<path style="fill:#FFFFFF;" d="M2973.933,960.31l-404.484-6.175c-6.582-0.101-11.885-5.568-11.785-12.15l0.945-61.914
					c0.1-6.582,5.568-11.885,12.15-11.785l404.484,6.175c6.582,0.101,11.885,5.568,11.785,12.15l-0.945,61.914
					C2985.982,955.108,2980.515,960.411,2973.933,960.31z"/>
				<path style="fill:#FFFFFF;" d="M2971.404,1136.156l-404.484-6.175c-6.582-0.1-11.885-5.568-11.785-12.15l0.945-61.914
					c0.101-6.582,5.568-11.885,12.15-11.785l404.484,6.175c6.582,0.1,11.885,5.568,11.785,12.15l-0.945,61.914
					C2983.453,1130.953,2977.986,1136.256,2971.404,1136.156z"/>
				<path style="fill:#FFFFFF;" d="M2968.564,1312.001l-404.484-6.175c-6.582-0.101-11.885-5.568-11.785-12.15l0.945-61.914
					c0.101-6.582,5.568-11.885,12.15-11.785l404.484,6.175c6.582,0.1,11.885,5.568,11.785,12.15l-0.945,61.914
					C2980.613,1306.799,2975.146,1312.102,2968.564,1312.001z"/>
			</g>
			<g style="opacity:0.58;">
				<g>
					<path style="fill:#FFFFFF;" d="M2963.724,1816.953h-991.067c-7.438,0-13.525-6.086-13.525-13.525v-79.138
						c0-7.439,6.086-13.525,13.525-13.525h991.067c7.438,0,13.524,6.086,13.524,13.525v79.138
						C2977.249,1810.867,2971.163,1816.953,2963.724,1816.953z"/>
					<ellipse style="fill:#FFFFFF;" cx="1828.538" cy="1763.536" rx="59.043" ry="64.376"/>
				</g>
				<g>
					<path style="fill:#FFFFFF;" d="M2963.724,2016.212h-991.067c-7.438,0-13.525-6.086-13.525-13.524v-79.138
						c0-7.439,6.086-13.525,13.525-13.525h991.067c7.438,0,13.524,6.086,13.524,13.525v79.138
						C2977.249,2010.126,2971.163,2016.212,2963.724,2016.212z"/>
					<ellipse style="fill:#FFFFFF;" cx="1828.538" cy="1962.795" rx="59.043" ry="64.376"/>
				</g>
				<g>
					<path style="fill:#FFFFFF;" d="M2963.724,2215.47h-991.067c-7.438,0-13.525-6.086-13.525-13.525v-79.138
						c0-7.438,6.086-13.524,13.525-13.524h991.067c7.438,0,13.524,6.086,13.524,13.524v79.138
						C2977.249,2209.385,2971.163,2215.47,2963.724,2215.47z"/>
					<ellipse style="fill:#FFFFFF;" cx="1828.538" cy="2162.054" rx="59.043" ry="64.376"/>
				</g>
				<g>
					<path style="fill:#FFFFFF;" d="M2963.724,2414.729h-991.067c-7.438,0-13.525-6.086-13.525-13.524v-79.138
						c0-7.438,6.086-13.525,13.525-13.525h991.067c7.438,0,13.524,6.086,13.524,13.525v79.138
						C2977.249,2408.643,2971.163,2414.729,2963.724,2414.729z"/>
					<ellipse style="fill:#FFFFFF;" cx="1828.538" cy="2361.313" rx="59.043" ry="64.376"/>
				</g>
			</g>
		</g>
		<g>
			
				<linearGradient id="SVGID_00000142874231218511252520000017738796731988209296_" gradientUnits="userSpaceOnUse" x1="2615.7532" y1="1814.6672" x2="2678.7588" y2="2478.3286" gradientTransform="matrix(0.9455 -0.3256 0.3725 1.0816 -862.8168 413.5202)">
				<stop  offset="0" style="stop-color:#CB236D"/>
				<stop  offset="1" style="stop-color:#4C246D"/>
			</linearGradient>
			<path style="fill:url(#SVGID_00000142874231218511252520000017738796731988209296_);" d="M2295.519,2026.885l-55.246,19.027
				l-86.739-251.844c-34.068-98.916,1.874-204.803,83.604-246.302l107.549-54.606c46.289-23.503,101.208-22.921,150.667,1.602
				c49.458,24.524,88.891,70.722,108.188,126.751l68.488,198.854c3.996,11.603-0.987,23.842-11.13,27.336l-36.88,12.702
				l-75.724-219.863c-13.071-37.951-39.781-69.244-73.282-85.856c-33.502-16.612-70.705-17.007-102.055-1.085l-107.55,54.606
				c-55.428,28.143-79.734,99.748-56.63,166.831L2295.519,2026.885z"/>
			
				<linearGradient id="SVGID_00000061444693031455712510000011870614012568911533_" gradientUnits="userSpaceOnUse" x1="2374.0889" y1="1931.2852" x2="2536.9382" y2="2710.1287">
				<stop  offset="0" style="stop-color:#CB236D"/>
				<stop  offset="1" style="stop-color:#4C246D"/>
			</linearGradient>
			<path style="fill:url(#SVGID_00000061444693031455712510000011870614012568911533_);" d="M2161.839,1969.297l512.202-28.377
				c20.803-1.153,38.304,15.406,38.304,36.241v405.772c0,20.046-16.25,36.296-36.297,36.296h-499.895
				c-19.586,0-35.639-15.538-36.277-35.113l-12.306-377.395C2126.927,1987.007,2142.146,1970.388,2161.839,1969.297z"/>
			
				<linearGradient id="SVGID_00000044880843782077130840000011960480567628296381_" gradientUnits="userSpaceOnUse" x1="2684.2156" y1="1863.1072" x2="2507.7949" y2="2094.1157">
				<stop  offset="0" style="stop-color:#CB236D"/>
				<stop  offset="1" style="stop-color:#4C246D"/>
			</linearGradient>
			<path style="fill:url(#SVGID_00000044880843782077130840000011960480567628296381_);" d="M2503.45,2302.989l-31.001-89.128
				c-3.728-10.716-1.188-22.697,6.781-30.772c15.887-16.098,25.354-38.544,24.233-63.198c-1.978-43.477-37.494-78.727-80.984-80.398
				c-48.128-1.849-87.727,36.619-87.727,84.336c0,26.472,12.193,50.087,31.265,65.557c9.892,8.023,13.958,21.21,9.774,33.24
				l-27.952,80.363c-6.798,19.544,7.713,39.956,28.406,39.956h98.8C2495.737,2342.945,2510.248,2322.533,2503.45,2302.989z"/>
		</g>
		<path style="opacity:0.34;fill:#FFFFFF;" d="M1913.092,947.474C971.747,717.863,278.52,1354.062,779.28,2234.271h618.42
			c-431.145-451.35,61.641-926.359,489.881-1170.911L1913.092,947.474z"/>
		<g>
			
				<linearGradient id="SVGID_00000067229790866291476610000000497807140152964738_" gradientUnits="userSpaceOnUse" x1="1372.4838" y1="947.9029" x2="1589.8975" y2="1418.3064">
				<stop  offset="0" style="stop-color:#53D8FF"/>
				<stop  offset="1" style="stop-color:#3840F7"/>
			</linearGradient>
			
				<circle style="fill:url(#SVGID_00000067229790866291476610000000497807140152964738_);" cx="1448.166" cy="1111.651" r="155.43"/>
			<g style="opacity:0.9;">
				<path style="fill:#FFFFFF;" d="M1450.307,1213.542c-56.136,0-101.806-45.67-101.806-101.806
					c0-56.136,45.67-101.805,101.806-101.805s101.806,45.67,101.806,101.805C1552.113,1167.872,1506.443,1213.542,1450.307,1213.542
					z M1450.307,1026.991c-46.729,0-84.745,38.016-84.745,84.745s38.017,84.745,84.745,84.745c46.729,0,84.745-38.016,84.745-84.745
					S1497.036,1026.991,1450.307,1026.991z"/>
				<path style="fill-rule:evenodd;clip-rule:evenodd;fill:#FFFFFF;" d="M1418.415,1150.942v-73.191
					c0-7.821,8.513-12.668,15.238-8.677l61.673,36.595c6.588,3.909,6.588,13.445,0,17.354l-61.673,36.595
					C1426.928,1163.61,1418.415,1158.763,1418.415,1150.942z"/>
			</g>
		</g>
		<g>
			<g>
				
					<linearGradient id="SVGID_00000119796091120335632560000016622465484853251218_" gradientUnits="userSpaceOnUse" x1="860.1248" y1="1373.0428" x2="698.4417" y2="1938.9335">
					<stop  offset="0" style="stop-color:#53D8FF"/>
					<stop  offset="1" style="stop-color:#3840F7"/>
				</linearGradient>
				
					<circle style="fill:url(#SVGID_00000119796091120335632560000016622465484853251218_);" cx="773.209" cy="1677.248" r="202.22"/>
			</g>
			<g>
				<g>
					<path style="fill:#FFFFFF;" d="M905.888,1789.075c0,4.021-3.26,7.281-7.281,7.281H647.051c-4.021,0-7.281-3.26-7.281-7.281
						v-211.133c0-4.021,3.26-7.281,7.281-7.281h251.556c4.021,0,7.281,3.26,7.281,7.281V1789.075z M656.613,1776.144h235.8v-192.009
						h-235.8V1776.144z"/>
				</g>
				<g>
					<path style="fill:#FFFFFF;" d="M839.933,1644.336c-1.997-2.591-5.163-4.117-8.434-4.138c-3.271-0.021-6.412,1.466-8.443,4.03
						l-53.584,67.658c-1.844,2.329-4.589,3.779-7.551,4c-2.962,0.221-5.886-0.807-8.056-2.836l-40.857-38.219
						c-4.038-3.777-10.853-3.827-14.95-0.114l-51.552,46.216v65.318h252.643v-65.318L839.933,1644.336z"/>
				</g>
				<g>
					<circle style="fill:#FFFFFF;" cx="715.873" cy="1622.339" r="25.786"/>
				</g>
			</g>
		</g>
		<g>
			
				<linearGradient id="SVGID_00000172415333496667258480000011327049514632264838_" gradientUnits="userSpaceOnUse" x1="1195.2744" y1="989.7719" x2="819.8313" y2="2259.2805">
				<stop  offset="0" style="stop-color:#53D8FF"/>
				<stop  offset="1" style="stop-color:#3840F7"/>
			</linearGradient>
			
				<circle style="fill:url(#SVGID_00000172415333496667258480000011327049514632264838_);" cx="1080.635" cy="1377.41" r="173.478"/>
			<g>
				<path style="fill:#FFFFFF;" d="M1081.237,1515.893L1081.237,1515.893c-11.502,0-21.925-5.875-27.881-15.716
					c-33.574-55.467-73.597-128.523-73.597-161.562c0-51.631,45.523-93.634,101.478-93.634s101.478,42.003,101.478,93.634
					c0,33.042-40.022,106.096-73.596,161.563C1103.161,1510.018,1092.737,1515.893,1081.237,1515.893z M1081.237,1257.966
					c-48.794,0-88.491,36.18-88.491,80.648c0,23.101,26.141,79.537,71.72,154.838c3.583,5.919,9.852,9.453,16.77,9.453
					c6.918,0,13.188-3.534,16.772-9.454c45.579-75.298,71.72-131.734,71.72-154.837
					C1169.728,1294.146,1130.031,1257.966,1081.237,1257.966z"/>
				<path style="fill:#FFFFFF;" d="M1073.375,1403.991c-34.693,0-62.918-28.223-62.918-62.916c0-3.587,2.907-6.493,6.494-6.493
					c3.586,0,6.493,2.906,6.493,6.493c0,27.532,22.398,49.931,49.931,49.931c27.532,0,49.931-22.398,49.931-49.931
					c0-27.532-22.398-49.932-49.931-49.932c-15.921,0-30.519,7.33-40.052,20.11c-2.142,2.876-6.212,3.468-9.087,1.323
					c-2.875-2.145-3.467-6.213-1.322-9.088c11.831-15.863,30.695-25.332,50.461-25.332c34.693,0,62.917,28.225,62.917,62.917
					C1136.292,1375.768,1108.068,1403.991,1073.375,1403.991z"/>
			</g>
		</g>
		<g>
			<g>
				<g>
					
						<linearGradient id="SVGID_00000030466798054794763710000014791881523440450236_" gradientUnits="userSpaceOnUse" x1="12530.9385" y1="3098.761" x2="12621.9551" y2="2526.2424" gradientTransform="matrix(-1 0 0 1 13675.626 0)">
						<stop  offset="0" style="stop-color:#CB236D"/>
						<stop  offset="1" style="stop-color:#4C246D"/>
					</linearGradient>
					
						<rect x="1090.76" y="2664.282" style="fill:url(#SVGID_00000030466798054794763710000014791881523440450236_);" width="42.11" height="455.399"/>
					
						<linearGradient id="SVGID_00000159447419564565656870000007162485432957426332_" gradientUnits="userSpaceOnUse" x1="12566.4834" y1="3102.8948" x2="12660.0654" y2="2514.2336" gradientTransform="matrix(-1 0 0 1 13675.626 0)">
						<stop  offset="0" style="stop-color:#CB236D"/>
						<stop  offset="1" style="stop-color:#4C246D"/>
					</linearGradient>
					<path style="fill:url(#SVGID_00000159447419564565656870000007162485432957426332_);" d="M927.402,3128.46h368.826v-16.65
						c0-5.943-4.818-10.761-10.761-10.761H939.001c-6.406,0-11.598,5.193-11.598,11.598V3128.46z"/>
					
						<linearGradient id="SVGID_00000014621640717111471970000003250704695627476127_" gradientUnits="userSpaceOnUse" x1="12492.9287" y1="3120.3159" x2="12589.6572" y2="2511.8647" gradientTransform="matrix(-1 0 0 1 13675.626 0)">
						<stop  offset="0" style="stop-color:#FDF53F"/>
						<stop  offset="1" style="stop-color:#D93C65"/>
					</linearGradient>
					<path style="fill:url(#SVGID_00000014621640717111471970000003250704695627476127_);" d="M857.655,2647.484
						c0,26.47,21.657,48.128,48.127,48.128h396.575c26.47,0,48.128-21.658,48.128-48.128v-43.517
						c0-26.47-21.658-48.128-48.128-48.128H905.782c-26.47,0-48.127,21.658-48.127,48.128V2647.484z"/>
				</g>
				
					<linearGradient id="SVGID_00000171680238159385173920000009627325335421857934_" gradientUnits="userSpaceOnUse" x1="1448.8546" y1="2951.6414" x2="1374.5177" y2="3097.8369">
					<stop  offset="0" style="stop-color:#2B3582"/>
					<stop  offset="1" style="stop-color:#150E42"/>
				</linearGradient>
				<path style="fill:url(#SVGID_00000171680238159385173920000009627325335421857934_);" d="M1346.362,3039.003
					c0,0,120.248,86.675,99.369,144.905c0,0-131.567-56.766-147.463-101.481c-15.895-44.715,2.689-64.465,2.689-64.465
					L1346.362,3039.003z"/>
				
					<linearGradient id="SVGID_00000173144089350674433850000001144286721511129731_" gradientUnits="userSpaceOnUse" x1="1307.4976" y1="3009.8206" x2="1381.5504" y2="3009.8206">
					<stop  offset="0" style="stop-color:#F9B776"/>
					<stop  offset="1" style="stop-color:#F47960"/>
				</linearGradient>
				<path style="fill:url(#SVGID_00000173144089350674433850000001144286721511129731_);" d="M1328.292,2966.363l-19.661,56.842
					c-2.968,8.578,0,18.346,7.673,23.194c3.842,2.428,9.094,4.673,16.271,6.3c10.129,2.296,20.586-2.382,25.456-11.555l23.52-44.29
					L1328.292,2966.363z"/>
				
					<linearGradient id="SVGID_00000165236992041010112420000004015855501355484554_" gradientUnits="userSpaceOnUse" x1="1205.0212" y1="2813.8806" x2="1519.7131" y2="2372.8162">
					<stop  offset="0" style="stop-color:#2B3582"/>
					<stop  offset="0.2305" style="stop-color:#252A70"/>
					<stop  offset="0.7285" style="stop-color:#19164F"/>
					<stop  offset="1" style="stop-color:#150E42"/>
				</linearGradient>
				<path style="fill:url(#SVGID_00000165236992041010112420000004015855501355484554_);" d="M1136.947,2454.735
					c0,0,246.985,42.805,352.932,140.677c105.948,97.872-97.245,410.071-97.245,410.071s-33.292-0.205-73.635-34.785
					c0,0,120.478-234.801,16.648-303.274c-116.73-76.981-251.255-94.318-251.255-94.318l50.166-110.825L1136.947,2454.735z"/>
				
					<linearGradient id="SVGID_00000042004484936481227550000015337078271692185490_" gradientUnits="userSpaceOnUse" x1="1405.7142" y1="3099.4551" x2="1148.0123" y2="3436.4492">
					<stop  offset="0" style="stop-color:#2B3582"/>
					<stop  offset="1" style="stop-color:#150E42"/>
				</linearGradient>
				<path style="fill:url(#SVGID_00000042004484936481227550000015337078271692185490_);" d="M1424.837,3151.702
					c-26.449-12.244-101.325-64.65-113.947-66.964c-12.622-2.312-34.514,12.521-34.514,12.521s-5.324,9.577,0.371,26.281
					c17.575,21.266,56.597,61.803,109.056,76.91c38.589,11.112,65.579,0.754,82.39-11.369
					C1458.944,3174.996,1442.451,3159.857,1424.837,3151.702z"/>
				
					<linearGradient id="SVGID_00000163751852205362603390000002467960505752443566_" gradientUnits="userSpaceOnUse" x1="1276.7469" y1="3172.4407" x2="1475.8722" y2="3172.4407">
					<stop  offset="0" style="stop-color:#53D8FF"/>
					<stop  offset="1" style="stop-color:#3840F7"/>
				</linearGradient>
				<path style="fill:url(#SVGID_00000163751852205362603390000002467960505752443566_);" d="M1385.803,3200.45
					c-52.459-15.106-91.481-55.644-109.056-76.91c3.849,11.288,12.724,25.826,31.69,42.874
					c47.034,42.273,136.865,57.512,155.991,54.575c15.327-2.354,13.882-16.501,3.766-31.908
					C1451.383,3201.204,1424.392,3211.562,1385.803,3200.45z"/>
				
					<linearGradient id="SVGID_00000127024730485333279500000007726149294202533538_" gradientUnits="userSpaceOnUse" x1="1253.9485" y1="3078.1604" x2="1323.4489" y2="3078.1604">
					<stop  offset="0" style="stop-color:#F9B776"/>
					<stop  offset="1" style="stop-color:#F47960"/>
				</linearGradient>
				<path style="fill:url(#SVGID_00000127024730485333279500000007726149294202533538_);" d="M1253.948,3060.264
					c0.297,7.288,15.191,32.277,23.894,46.298c4.136,6.663,11.384,10.733,19.226,10.755c4.974,0.012,10.693-0.42,15.885-1.911
					c7.795-2.238,12.172-10.542,9.893-18.325l-17.009-58.079L1253.948,3060.264z"/>
				
					<linearGradient id="SVGID_00000154388147672165782300000017287746427976532113_" gradientUnits="userSpaceOnUse" x1="1091.5939" y1="3033.6682" x2="1108.9393" y2="2443.9292">
					<stop  offset="0" style="stop-color:#2B3582"/>
					<stop  offset="1" style="stop-color:#150E42"/>
				</linearGradient>
				<path style="fill:url(#SVGID_00000154388147672165782300000017287746427976532113_);" d="M899.2,2380.597
					c0,0-54.851,146.668,0,191.271c54.852,44.602,185.703,94.819,214.934,183.657c29.231,88.838,78.836,261.49,145.218,322.635
					c0,0,46.642-4.519,64.097-23.103c0,0-37.808-257.744-62.743-323.878c-21.594-57.271-53.41-139.938-114.381-186.143
					c-17.453-13.226-14.413-34.177-6.32-54.525l14.736-37.056L899.2,2380.597z"/>
				
					<linearGradient id="SVGID_00000060009689370541971370000017321243698499168925_" gradientUnits="userSpaceOnUse" x1="1521.5376" y1="2460.1257" x2="1350.5627" y2="2192.5134">
					<stop  offset="0" style="stop-color:#2B3582"/>
					<stop  offset="1" style="stop-color:#150E42"/>
				</linearGradient>
				<path style="fill:url(#SVGID_00000060009689370541971370000017321243698499168925_);" d="M1471.269,2265.643
					c-91.97,5.545-63.312-141.386-61.655-147.23l-139.587,98.594c0,0,7.391,78.575,123.445,119.792
					c29.362,10.427,56.198,10.888,79.924,5.789C1463.278,2313.083,1465.335,2286.607,1471.269,2265.643z"/>
				
					<linearGradient id="SVGID_00000038411834388392297130000015885982269518305672_" gradientUnits="userSpaceOnUse" x1="1466.313" y1="2276.7065" x2="1708.7548" y2="2276.7065">
					<stop  offset="0" style="stop-color:#F9B776"/>
					<stop  offset="1" style="stop-color:#F47960"/>
				</linearGradient>
				<path style="fill:url(#SVGID_00000038411834388392297130000015885982269518305672_);" d="M1649.101,2221.42
					c-34.272-23.839-73.098,0-73.098,0c-45.824,29.969-79.727,42.716-104.735,44.223c-5.933,20.964-7.99,47.439,2.127,76.945
					c51.336-11.035,88.063-48.187,104.021-67.251c5.746-6.863,15.92-8.056,22.945-2.51c7.136,5.633,14.066,13.35,12.81,21.472
					c-2.478,16.015,16.106,21.106,17.507,15.299c1.401-5.81-6.357-40.242-6.357-40.242s37.169,37.377,51.678,51.739
					c14.509,14.363,32.755,0,32.755,0S1683.373,2245.26,1649.101,2221.42z"/>
				
					<linearGradient id="SVGID_00000114038306378049446680000009467222678624373394_" gradientUnits="userSpaceOnUse" x1="827.2801" y1="2415.2241" x2="1408.4496" y2="1895.23">
					<stop  offset="0" style="stop-color:#2B3582"/>
					<stop  offset="1" style="stop-color:#150E42"/>
				</linearGradient>
				<path style="fill:url(#SVGID_00000114038306378049446680000009467222678624373394_);" d="M1042.426,1891.502
					c0,0,133.8-53.572,382.807,152.004c0,0,20.799,43.052-1.891,81.372c-22.69,38.32-238.886,225.034-268.6,328.578
					c0,0-128.801,41.852-262.002-57.391C892.739,2396.065,904.494,2107.888,1042.426,1891.502z"/>
				
					<linearGradient id="SVGID_00000084529938413638831590000000703418356791084984_" gradientUnits="userSpaceOnUse" x1="1234.9883" y1="1910.5244" x2="1395.8452" y2="1910.5244">
					<stop  offset="0" style="stop-color:#F9B776"/>
					<stop  offset="1" style="stop-color:#F47960"/>
				</linearGradient>
				<path style="fill:url(#SVGID_00000084529938413638831590000000703418356791084984_);" d="M1320.325,1826.926l-79.257,96.616
					c-6.54,7.928-7.98,18.957-3.457,28.184c9.142,18.65,30.835,45.799,78.944,42.045c14.311-1.117,26.985-9.753,33.235-22.674
					l46.056-95.206L1320.325,1826.926z"/>
				
					<linearGradient id="SVGID_00000023968920572684944240000011010894573160487559_" gradientUnits="userSpaceOnUse" x1="729.7939" y1="2306.269" x2="1310.9653" y2="1786.2731">
					<stop  offset="0" style="stop-color:#2B3582"/>
					<stop  offset="1" style="stop-color:#150E42"/>
				</linearGradient>
				<path style="fill:url(#SVGID_00000023968920572684944240000011010894573160487559_);" d="M938.836,2233.483
					c-15.533-63.259,141.799-204.288,141.799-204.288l-38.209-137.693c0,0-339.731,226.162-253.154,408.035
					c12.411,26.072,28.894,44.336,48.007,56.548C864.635,2282.449,908.23,2248.679,938.836,2233.483z"/>
				
					<linearGradient id="SVGID_00000093875401629527252260000010153611830525695155_" gradientUnits="userSpaceOnUse" x1="729.0522" y1="1941.6952" x2="1124.5098" y2="2190.7676">
					<stop  offset="0" style="stop-color:#2B3582"/>
					<stop  offset="1" style="stop-color:#150E42"/>
				</linearGradient>
				<path style="fill:url(#SVGID_00000093875401629527252260000010153611830525695155_);" d="M938.725,2224.273
					c-1.67,0-3.189-1.133-3.606-2.831c-15.884-64.677,136.439-202.118,142.929-207.94c1.525-1.364,3.872-1.244,5.251,0.286
					c1.37,1.529,1.239,3.881-0.286,5.251c-1.558,1.394-155.502,140.253-140.674,200.632c0.489,1.994-0.731,4.008-2.725,4.496
					C939.32,2224.239,939.019,2224.273,938.725,2224.273z"/>
				
					<linearGradient id="SVGID_00000105386307235386910980000013179374341903932853_" gradientUnits="userSpaceOnUse" x1="1125.2953" y1="2279.6245" x2="509.4498" y2="3349.7827">
					<stop  offset="0" style="stop-color:#F9B776"/>
					<stop  offset="1" style="stop-color:#F47960"/>
				</linearGradient>
				<path style="fill:url(#SVGID_00000105386307235386910980000013179374341903932853_);" d="M1177.135,2228.039
					c0,0-186.536,72.422-232.068,17.947c-3.088-3.695-5.1-7.901-6.231-12.503c-30.606,15.196-74.201,48.966-101.557,122.602
					c98.107,62.691,265.8-34.875,311.143-63.638c7.459-4.731,16.407-6.391,25.057-4.597c17.489,3.626,47.7,8.959,63.994,6.449
					c23.838-3.672,58.075,80.411,96.71,54.476C1334.183,2348.775,1301.1,2202.619,1177.135,2228.039z"/>
				<g>
					
						<linearGradient id="SVGID_00000031899914202056585290000014036159309545515455_" gradientUnits="userSpaceOnUse" x1="1747.6467" y1="365.5231" x2="1546.5565" y2="631.549" gradientTransform="matrix(0.9683 -0.2499 0.2499 0.9683 -371.2531 1820.1976)">
						<stop  offset="0" style="stop-color:#F9B776"/>
						<stop  offset="1" style="stop-color:#F47960"/>
					</linearGradient>
					<path style="fill:url(#SVGID_00000031899914202056585290000014036159309545515455_);" d="M1450.254,1726.406
						c0.663,2.567-15.439,177.116-15.439,177.116l-99.469-11.312l-9.317-167.703
						C1326.029,1724.506,1439.161,1683.431,1450.254,1726.406z"/>
					
						<linearGradient id="SVGID_00000129201535021895584630000006272895886664410280_" gradientUnits="userSpaceOnUse" x1="1594.069" y1="429.6953" x2="1834.272" y2="429.6953" gradientTransform="matrix(0.9683 -0.2499 0.2499 0.9683 -371.2531 1820.1976)">
						<stop  offset="0" style="stop-color:#2B3582"/>
						<stop  offset="1" style="stop-color:#150E42"/>
					</linearGradient>
					<path style="fill:url(#SVGID_00000129201535021895584630000006272895886664410280_);" d="M1351.936,1759.262l-2.009,88.666
						c-0.026,1.137,0.097,2.244,0.38,3.346c1.731,6.743,9.386,29.505,32.196,20.252c20.698-8.395,39.713-15.749,53.696-13.096
						c6.278,1.191,10.619,6.942,10.03,13.305c-1.467,15.858-5.434,51.533-13.609,82.001c-1.659,6.182-7.811,10.009-14.115,8.898
						c-18.997-3.346-58.865-11.524-89.397-25.618c-4.137-1.909-6.912-5.876-7.217-10.422c-1.491-22.164-6.271-89.513-10.506-108.075
						c-3.974-17.421-26.79-25.616-36.616-28.373c-3.222-0.904-5.905-3.069-7.477-6.023c-5.555-10.441-14.335-35.047,16.368-48.895
						c6.426-2.898,9.15-10.468,6.058-16.802c-6.156-12.612-10.344-32.43,13.077-46.171c23.804-13.968,43.968-2.674,55.253,7.065
						c4.563,3.938,11.188,3.887,15.901,0.131c2.684-2.138,6.333-3.144,11.128-0.84c6.461,3.104,14.189-0.343,16.606-7.091
						c4.646-12.965,15.417-27.488,40.389-25.979c44.311,2.674,54.526,50.33,46.152,79.832c-8.373,29.502-56.249,23.87-81.237,12.203
						c-18.999-8.871-40.856,5.012-50.243,12.176C1353.769,1752.021,1352.02,1755.521,1351.936,1759.262z"/>
					
						<linearGradient id="SVGID_00000089573881044297265100000016661059333224703662_" gradientUnits="userSpaceOnUse" x1="1455.6204" y1="576.8444" x2="1616.113" y2="412.1832" gradientTransform="matrix(0.9683 -0.2499 0.2499 0.9683 -371.2531 1820.1976)">
						<stop  offset="0" style="stop-color:#F9B776"/>
						<stop  offset="1" style="stop-color:#F47960"/>
					</linearGradient>
					<path style="fill:url(#SVGID_00000089573881044297265100000016661059333224703662_);" d="M1315.417,1852.052
						c0,0,7.943-53.272-11.773-63.518c-19.715-10.246-46.224-0.894-36.253,34.72
						C1279.794,1867.553,1315.417,1852.052,1315.417,1852.052z"/>
					<path style="fill:#FFFFFF;" d="M1447.392,1735.677c4.094-0.862,8.001-2.105,11.759-3.511c3.731-1.479,7.289-3.261,10.417-5.588
						c3.227-2.22,5.746-5.234,7.818-8.538c2.175-3.313,3.276-7.208,4.484-11.239c0.177,4.123-0.043,8.585-2.016,12.521
						c-1.765,3.964-4.595,7.58-8.166,10.116C1464.563,1734.539,1455.716,1736.613,1447.392,1735.677z"/>
				</g>
				<g>
					
						<linearGradient id="SVGID_00000020362854071475942540000013723304235546395777_" gradientUnits="userSpaceOnUse" x1="7499.3159" y1="15153.1973" x2="7701.1133" y2="14622.1514" gradientTransform="matrix(-0.9988 -0.0494 -0.0494 0.9988 13717.0957 -55.0327)">
						<stop  offset="0" style="stop-color:#CB236D"/>
						<stop  offset="1" style="stop-color:#4C246D"/>
					</linearGradient>
					<path style="fill:url(#SVGID_00000020362854071475942540000013723304235546395777_);" d="M1272.7,2370.853
						c0.3,0.015,0.599,0.023,0.9,0.021l391.379-0.427c9.675-0.008,17.51-7.86,17.5-17.536c-0.01-9.678-7.889-17.673-17.538-17.5
						l-391.38,0.427c-9.675,0.008-17.51,7.861-17.5,17.535C1256.072,2362.748,1263.443,2370.396,1272.7,2370.853z"/>
					
						<linearGradient id="SVGID_00000069379110442975933550000003371835394791165076_" gradientUnits="userSpaceOnUse" x1="1451.146" y1="2445.7061" x2="2014.0524" y2="2020.8705">
						<stop  offset="0" style="stop-color:#CB236D"/>
						<stop  offset="1" style="stop-color:#4C246D"/>
					</linearGradient>
					<path style="fill:url(#SVGID_00000069379110442975933550000003371835394791165076_);" d="M2016.812,2015.505h-325.943
						c-24.045,0-45.931,13.877-56.187,35.625l-150.683,319.515h405.061c15.495,0,29.417-9.468,35.113-23.878l116.848-295.664
						C2047.771,2034.019,2035.181,2015.505,2016.812,2015.505z"/>
				</g>
				<g>
					<g>
						
							<linearGradient id="SVGID_00000072975430515616813140000002226080464345000577_" gradientUnits="userSpaceOnUse" x1="11884.1299" y1="2768.2961" x2="11884.1299" y2="3135.3503" gradientTransform="matrix(-1 0 0 1 13675.626 0)">
							<stop  offset="0" style="stop-color:#53D8FF"/>
							<stop  offset="1" style="stop-color:#3840F7"/>
						</linearGradient>
						<path style="fill:url(#SVGID_00000072975430515616813140000002226080464345000577_);" d="M1963.97,3210.287
							c2.168,0,4.371-0.419,6.491-1.301c8.344-3.475,12.198-12.841,8.609-20.918l-344.929-776.293
							c-3.587-8.075-13.255-11.804-21.608-8.334c-8.343,3.476-12.198,12.841-8.609,20.918l344.929,776.293
							C1951.53,3206.677,1957.596,3210.287,1963.97,3210.287z"/>
						
							<linearGradient id="SVGID_00000139283863913531907830000009795824807781903295_" gradientUnits="userSpaceOnUse" x1="11927.7617" y1="2768.2961" x2="11927.7617" y2="3135.3511" gradientTransform="matrix(-1 0 0 1 13675.626 0)">
							<stop  offset="0" style="stop-color:#53D8FF"/>
							<stop  offset="1" style="stop-color:#3840F7"/>
						</linearGradient>
						<path style="fill:url(#SVGID_00000139283863913531907830000009795824807781903295_);" d="M1575.391,3210.287
							c6.374,0,12.439-3.607,15.116-9.635l344.929-776.293c3.59-8.078-0.265-17.443-8.608-20.918
							c-8.338-3.475-18.016,0.254-21.608,8.334l-344.929,776.293c-3.59,8.077,0.265,17.443,8.609,20.918
							C1571.018,3209.868,1573.223,3210.287,1575.391,3210.287z"/>
						
							<linearGradient id="SVGID_00000152222653315398540370000010219881942666537895_" gradientUnits="userSpaceOnUse" x1="12951.834" y1="2768.2961" x2="12951.834" y2="3135.3503" gradientTransform="matrix(-1 0 0 1 13675.626 0)">
							<stop  offset="0" style="stop-color:#53D8FF"/>
							<stop  offset="1" style="stop-color:#3840F7"/>
						</linearGradient>
						<path style="fill:url(#SVGID_00000152222653315398540370000010219881942666537895_);" d="M896.265,3210.287
							c2.168,0,4.371-0.419,6.491-1.301c8.343-3.475,12.198-12.841,8.609-20.918l-344.929-776.293
							c-3.589-8.075-13.253-11.804-21.608-8.334c-8.343,3.476-12.198,12.841-8.608,20.918l344.929,776.293
							C883.826,3206.677,889.892,3210.287,896.265,3210.287z"/>
						
							<linearGradient id="SVGID_00000007411142080968780790000003866834917334592653_" gradientUnits="userSpaceOnUse" x1="12995.4639" y1="2768.2961" x2="12995.4639" y2="3135.3511" gradientTransform="matrix(-1 0 0 1 13675.626 0)">
							<stop  offset="0" style="stop-color:#53D8FF"/>
							<stop  offset="1" style="stop-color:#3840F7"/>
						</linearGradient>
						<path style="fill:url(#SVGID_00000007411142080968780790000003866834917334592653_);" d="M507.69,3210.287
							c6.374,0,12.439-3.607,15.116-9.635l344.929-776.293c3.59-8.078-0.265-17.443-8.608-20.918
							c-8.338-3.475-18.016,0.254-21.608,8.334l-344.93,776.293c-3.589,8.077,0.266,17.443,8.609,20.918
							C503.316,3209.868,505.522,3210.287,507.69,3210.287z"/>
					</g>
					
						<linearGradient id="SVGID_00000002368365201456079140000009065271639867695283_" gradientUnits="userSpaceOnUse" x1="11606.1211" y1="2409.6638" x2="13208.6768" y2="2409.6638" gradientTransform="matrix(-1 0 0 1 13675.626 0)">
						<stop  offset="0" style="stop-color:#9CFFFB"/>
						<stop  offset="1" style="stop-color:#9BFFFA"/>
					</linearGradient>
					<path style="fill:url(#SVGID_00000002368365201456079140000009065271639867695283_);" d="M467.232,2387.808
						c-0.88-5.091,0.318-10.357,3.266-14.357c2.948-4.001,7.337-6.318,11.97-6.318h1569.177c6.092,0,11.764,3.476,15.046,9.222
						c3.282,5.746,3.722,12.968,1.167,19.159l-17.005,41.203c-3.894,9.436-12.331,15.477-21.615,15.477H493.236
						c-8.636,0-16.06-6.856-17.7-16.349L467.232,2387.808z"/>
				</g>
				
					<linearGradient id="SVGID_00000134950492929780892860000011403236990601138360_" gradientUnits="userSpaceOnUse" x1="1176.9742" y1="1960.9479" x2="1285.9298" y2="1863.4613">
					<stop  offset="0" style="stop-color:#2B3582"/>
					<stop  offset="1" style="stop-color:#150E42"/>
				</linearGradient>
				<path style="fill:url(#SVGID_00000134950492929780892860000011403236990601138360_);" d="M1276.746,1989.537
					c0,0-21.576-80.875-13.844-95.276c7.731-14.4,13.844-16.783,13.844-16.783s-62.373-47.328-106.07-23.565
					c-43.697,23.763-36.05,37.965-25.126,54.351C1156.474,1924.651,1261.557,1993.795,1276.746,1989.537z"/>
				
					<linearGradient id="SVGID_00000173149171172218511320000018184650490824909500_" gradientUnits="userSpaceOnUse" x1="1288.9595" y1="2015.217" x2="1364.6852" y2="1947.4623">
					<stop  offset="0" style="stop-color:#2B3582"/>
					<stop  offset="1" style="stop-color:#150E42"/>
				</linearGradient>
				<path style="fill:url(#SVGID_00000173149171172218511320000018184650490824909500_);" d="M1276.746,1989.537
					c0,0,62.163,17.913,81.827,0c19.663-17.912-3.188-34.801-3.188-34.801S1302.441,1998.302,1276.746,1989.537z"/>
			</g>
			<path style="fill:#FFFFFF;" d="M1885.6,2178.46h-96.88c-6.494-25.4-29.529-44.179-56.952-44.179
				c-32.465,0-58.782,26.318-58.782,58.783c0,32.464,26.317,58.782,58.782,58.782c28.72,0,52.613-20.602,57.748-47.829h27.688
				v14.786c0,5.545,4.495,10.041,10.04,10.041h0.365c5.546,0,10.04-4.495,10.04-10.041v-14.786h25.558v22.819
				c0,5.545,4.495,10.04,10.041,10.04h0.365c5.545,0,10.041-4.495,10.041-10.04v-22.819h1.947c6.99,0,12.657-5.667,12.657-12.657
				v-0.243C1898.257,2184.126,1892.591,2178.46,1885.6,2178.46z M1731.769,2229.331c-20.029,0-36.267-16.238-36.267-36.267
				c0-20.03,16.238-36.267,36.267-36.267c20.03,0,36.267,16.237,36.267,36.267
				C1768.036,2213.094,1751.799,2229.331,1731.769,2229.331z"/>
		</g>
		<g>
			<circle style="fill:#FFFFFF;" cx="2111.372" cy="1063.36" r="352.636"/>
			<g>
				<defs>
					<circle id="SVGID_00000030486285858168604230000003703304093461451432_" cx="2111.372" cy="1063.36" r="314.05"/>
				</defs>
				<clipPath id="SVGID_00000049935411001004602230000004628369483864495493_">
					<use xlink:href="#SVGID_00000030486285858168604230000003703304093461451432_"  style="overflow:visible;"/>
				</clipPath>
				<g style="clip-path:url(#SVGID_00000049935411001004602230000004628369483864495493_);">
					
						<linearGradient id="SVGID_00000180329608876707423930000008106395632615159949_" gradientUnits="userSpaceOnUse" x1="1802.5444" y1="714.2299" x2="2088.541" y2="1021.365">
						<stop  offset="0" style="stop-color:#2B3582"/>
						<stop  offset="1" style="stop-color:#150E42"/>
					</linearGradient>
					<path style="fill:url(#SVGID_00000180329608876707423930000008106395632615159949_);" d="M2037.258,857.993
						c0,0-10.882,45.802-40.187,20.53c-29.306-25.272-65.542-62.653-106.519-30.541c-40.979,32.112,7.629,58.701,7.629,58.701
						s-18.677-9.558-32.736,5.532c-4.041,4.337-10.496,5.135-15.309,1.674c-4.539-3.265-10.809-5.012-18.377-0.104
						c-5.954,3.861-22.524,41.45-7.377,108.099c9.02,39.692,35.251,154.022,125.038,175.743
						c58.627,14.183,108.688-19.757,113.087-22.838c49.176-34.447,58.543-87.139,60.074-96.734
						c-2.744-10.572-15.674-64.58,15.662-108.446c7.125-9.973,27.888-35.72,59.915-40.504c6.889-1.029,14.067,0.334,24.059,3.569
						c0,0,8.42,47.119,39.569,45.366c0,0-3.071-11.846,9.039-18.776c11.605-6.643,39.327-40.683-7.729-70.772
						c-3.736-2.389-5.689-6.722-5.294-11.138c1.273-14.248-1.935-46.875-50.055-73.665c-61.155-34.045-103.526-27.267-126.176,6.556
						c-1.643,2.452-4.227,4.112-7.116,4.721C2064.741,817.017,2042.5,825.257,2037.258,857.993z"/>
					
						<linearGradient id="SVGID_00000160159789947824667750000011781713127353697971_" gradientUnits="userSpaceOnUse" x1="2189.6023" y1="925.7714" x2="2133.9226" y2="1326.2371">
						<stop  offset="0" style="stop-color:#C4421B"/>
						<stop  offset="1" style="stop-color:#5C0E16"/>
					</linearGradient>
					<polygon style="fill:url(#SVGID_00000160159789947824667750000011781713127353697971_);" points="2093.732,1097.406 
						2115.195,1206.714 2223.904,1196.958 2202.864,1081.849 					"/>
					
						<linearGradient id="SVGID_00000098903494404307035160000017484278503532300965_" gradientUnits="userSpaceOnUse" x1="1912.1597" y1="612.1589" x2="2198.1572" y2="919.2953">
						<stop  offset="0" style="stop-color:#2B3582"/>
						<stop  offset="1" style="stop-color:#150E42"/>
					</linearGradient>
					<path style="fill:url(#SVGID_00000098903494404307035160000017484278503532300965_);" d="M2258.731,929.793
						c0,0,23.218,0,27.087,34.827c3.87,34.827-38.697,50.306-38.697,50.306l-23.218-3.869l11.609-73.524L2258.731,929.793z"/>
					
						<linearGradient id="SVGID_00000170265457924617898590000008159187428008882079_" gradientUnits="userSpaceOnUse" x1="1869.2134" y1="1004.6628" x2="1899.5276" y2="551.9758" gradientTransform="matrix(0.9977 0.0681 -0.0681 0.9977 345.4232 35.2827)">
						<stop  offset="0" style="stop-color:#C4421B"/>
						<stop  offset="1" style="stop-color:#5C0E16"/>
					</linearGradient>
					<path style="fill:url(#SVGID_00000170265457924617898590000008159187428008882079_);" d="M2054.271,1006.544
						c0,0,15.26,117.402,83.698,137.587c68.439,20.185,98.98-86.333,103.368-93.791c0,0,14.916,8.776,19.831-6.404
						c4.915-15.179,26.852-52.468-7.894-54.84c0,0,10.356-38.08,0.092-58.174c-10.265-20.094-30.267-68.004-81.248-59.846
						C2121.139,879.232,2058.223,948.633,2054.271,1006.544z"/>
					
						<linearGradient id="SVGID_00000000205440783332970160000005210696344232123266_" gradientUnits="userSpaceOnUse" x1="1879.147" y1="632.8401" x2="2173.8857" y2="949.3635">
						<stop  offset="0" style="stop-color:#2B3582"/>
						<stop  offset="1" style="stop-color:#150E42"/>
					</linearGradient>
					<path style="fill:url(#SVGID_00000000205440783332970160000005210696344232123266_);" d="M2248.153,878.554
						c-3.852-2.196-6.023-6.424-5.853-10.855c0.548-14.294-4.313-46.716-53.732-71.028c-62.805-30.895-104.777-21.974-125.68,12.956
						c-1.516,2.532-4.013,4.322-6.867,5.076c-9.597,2.541-31.391,11.9-34.964,44.86c0,0-3.873,20.895-15.682,27.396
						c28.265,23.493,40.805,105.886,41.377,106.989c8.853,2.149,41.484,6.791,80.829-28.042
						c47.167-41.756,51.17-49.427,81.989-41.152c0,0,22.24,46.452,53.26,43.119c0,0-8.173-9.596,3.569-17.132
						C2277.652,943.518,2296.677,906.213,2248.153,878.554z"/>
					
						<linearGradient id="SVGID_00000058555323559996552210000003678169076531278775_" gradientUnits="userSpaceOnUse" x1="1757.7395" y1="997.1988" x2="1788.0536" y2="544.5143" gradientTransform="matrix(0.9977 0.0681 -0.0681 0.9977 345.4232 35.2827)">
						<stop  offset="0" style="stop-color:#C4421B"/>
						<stop  offset="1" style="stop-color:#5C0E16"/>
					</linearGradient>
					<path style="fill:url(#SVGID_00000058555323559996552210000003678169076531278775_);" d="M2061.729,1010.932
						c0,0,1.581-23.164-17.986-20.621c-19.567,2.543-0.052,60.487,17.96,50.864L2061.729,1010.932z"/>
					
						<linearGradient id="SVGID_00000177479320666915698720000003419682417644877231_" gradientUnits="userSpaceOnUse" x1="2197.1482" y1="926.8214" x2="2141.4685" y2="1327.2875">
						<stop  offset="0" style="stop-color:#C4421B"/>
						<stop  offset="1" style="stop-color:#5C0E16"/>
					</linearGradient>
					<path style="fill:url(#SVGID_00000177479320666915698720000003419682417644877231_);" d="M2107.322,1166.62l-72.435,27.091
						l89.641,98.36l161.257-102.616c-12.718-4.749-20.734-13.996-32.953-17.274c-12.034-3.228-23.815-6.279-35.323-10.207
						L2107.322,1166.62z"/>
					
						<linearGradient id="SVGID_00000074422822998042324460000000813378774054265776_" gradientUnits="userSpaceOnUse" x1="2186.3103" y1="1147.3119" x2="1546.881" y2="1709.5688">
						<stop  offset="0" style="stop-color:#53D8FF"/>
						<stop  offset="1" style="stop-color:#3840F7"/>
					</linearGradient>
					<path style="fill:url(#SVGID_00000074422822998042324460000000813378774054265776_);" d="M1988.051,1441.89
						c9.272-25.712,16.42-40.036,16.42-40.036l-62.697-159.764c0,0-29.74,60.88-54.163,142.152
						c-8.63,28.719,12.832,57.648,42.82,57.648H1988.051z"/>
					
						<linearGradient id="SVGID_00000032636863928043797500000009948433057792414120_" gradientUnits="userSpaceOnUse" x1="2488.4565" y1="1256.8147" x2="1700.6389" y2="1949.551">
						<stop  offset="0" style="stop-color:#FDF53F"/>
						<stop  offset="1" style="stop-color:#D93C65"/>
					</linearGradient>
					<path style="fill:url(#SVGID_00000032636863928043797500000009948433057792414120_);" d="M2422.122,1386.58
						c-14.311-82.672-37.11-140.333-37.11-140.333l-84.084,120.553c11.635,25.94,20.401,51.214,26.771,75.089h47.962
						C2404.966,1441.89,2427.12,1415.455,2422.122,1386.58z"/>
					
						<linearGradient id="SVGID_00000037662798492013751290000015937869369185677213_" gradientUnits="userSpaceOnUse" x1="2389.5396" y1="1116.0787" x2="1398.0638" y2="1987.8936">
						<stop  offset="0" style="stop-color:#53D8FF"/>
						<stop  offset="1" style="stop-color:#3840F7"/>
					</linearGradient>
					<path style="fill:url(#SVGID_00000037662798492013751290000015937869369185677213_);" d="M2325.796,1441.89l58.929-190.501
						c7.086-11.026-48.19-58.05-140.83-83.291c-10.056,48.949-164.961,46.39-166.485,9.745
						c-71.167,25.563-135.318,45.083-140.523,74.699c2.562,56.519,17.065,119.56,36.15,189.348H2325.796z"/>
				</g>
			</g>
		</g>
	</g>
</g>
</svg>
